<!-- Generated by IcoMoon.io -->
<svg version="1.1" xmlns="http://www.w3.org/2000/svg" width="64" height="64" viewBox="0 0 64 64">
<title>brand3</title>
<path fill="#ff4500" d="M5.892 37.472c-0.16 0.74-0.24 1.496-0.24 2.264 0 9.2 11.76 16.692 26.216 16.692 14.452 0 26.212-7.488 26.212-16.692 0-0.732-0.080-1.456-0.22-2.16l-0.040-0.088c-0.052-0.144-0.080-0.292-0.080-0.44-0.8-3.136-2.98-5.988-6.132-8.288-0.12-0.040-0.232-0.104-0.336-0.188-0.068-0.052-0.12-0.112-0.176-0.172-4.792-3.296-11.64-5.36-19.228-5.36-7.52 0-14.304 2.024-19.088 5.26-0.040 0.048-0.080 0.092-0.132 0.132-0.104 0.088-0.224 0.16-0.348 0.2-3.22 2.304-5.456 5.172-6.288 8.344 0 0.152-0.040 0.308-0.1 0.456l-0.020 0.040zM32 52.012c-4.792 0-8.168-1.040-10.32-3.2-0.464-0.464-0.464-1.22 0-1.688 0.468-0.44 1.228-0.44 1.696 0 1.68 1.68 4.5 2.52 8.62 2.52s6.92-0.8 8.6-2.48c0.44-0.44 1.2-0.44 1.68 0 0.44 0.48 0.44 1.24 0 1.72-2.16 2.16-5.52 3.2-10.32 3.2zM22.368 31.78c-2.44 0-4.48 2.040-4.48 4.48 0 2.432 2.040 4.408 4.48 4.408s4.412-1.976 4.412-4.408c0-2.44-1.976-4.48-4.412-4.48zM41.688 31.78c-2.44 0-4.48 2.040-4.48 4.48 0 2.432 2.040 4.408 4.48 4.408s4.412-1.976 4.412-4.408c0-2.44-1.976-4.48-4.412-4.48zM53.84 27.52c2.772 2.224 4.808 4.864 5.848 7.76 1.2-0.9 1.92-2.312 1.92-3.872 0-2.68-2.18-4.856-4.856-4.856-1.068 0-2.080 0.348-2.912 0.972zM7.248 26.56c-2.68 0-4.856 2.18-4.856 4.856 0 1.452 0.64 2.8 1.72 3.708 1.072-2.88 3.128-5.48 5.912-7.68-0.808-0.56-1.772-0.88-2.776-0.88zM31.868 58.828c-15.776 0-28.608-8.56-28.608-19.080 0-0.732 0.064-1.452 0.184-2.16-2.12-1.32-3.44-3.64-3.44-6.18 0-4 3.28-7.248 7.28-7.248 1.8 0 3.48 0.656 4.8 1.82 4.96-3.184 11.64-5.188 19-5.32l4.84-14.76 1.080 0.252s0.040 0 0.040 0.008l11.28 2.652c0.92-2.132 3.040-3.632 5.52-3.632 3.28 0 5.96 2.68 5.96 5.968 0 3.292-2.68 5.968-5.96 5.968s-5.96-2.68-5.96-5.96l-10.284-2.436-3.92 11.96c7.080 0.28 13.48 2.28 18.28 5.4 1.32-1.24 3.056-1.92 4.9-1.92 4 0 7.256 3.24 7.256 7.24 0 2.64-1.44 5.040-3.68 6.32 0.080 0.68 0.16 1.32 0.16 2-0.040 10.52-12.84 19.080-28.64 19.080zM53.72 7.572c-1.976 0-3.58 1.6-3.58 3.576 0 1.972 1.6 3.576 3.576 3.576 1.96 0 3.56-1.6 3.56-3.56s-1.6-3.56-3.6-3.56z"></path>
</svg>
