<!-- Generated by IcoMoon.io -->
<svg version="1.1" xmlns="http://www.w3.org/2000/svg" width="64" height="64" viewBox="0 0 64 64">
<title>brand2</title>
<path fill="#0077b5" d="M54.528 54.54h-9.48v-14.852c0-3.544-0.072-8.1-4.936-8.1-4.94 0-5.696 3.856-5.696 7.84v15.112h-9.48v-30.54h9.104v4.16h0.12c1.272-2.4 4.368-4.932 8.988-4.932 9.6 0 11.38 6.32 11.38 14.548v16.752zM14.232 19.82c-3.048 0-5.504-2.468-5.504-5.508 0-3.032 2.456-5.5 5.504-5.5 3.040 0 5.504 2.468 5.504 5.5 0 3.040-2.468 5.508-5.504 5.508zM18.984 54.54h-9.504v-30.54h9.504v30.54zM59.264 0h-54.544c-2.608 0-4.72 2.064-4.72 4.612v54.776c0 2.548 2.112 4.612 4.72 4.612h54.54c2.608 0 4.74-2.064 4.74-4.612v-54.776c0-2.548-2.132-4.612-4.74-4.612z"></path>
</svg>
