<!-- Generated by IcoMoon.io -->
<svg version="1.1" xmlns="http://www.w3.org/2000/svg" width="64" height="64" viewBox="0 0 64 64">
<title>brand</title>
<path d="M32 0c-17.68 0-32 14.328-32 32 0 14.14 9.168 26.132 21.88 30.36 1.6 0.3 2.188-0.688 2.188-1.54 0-0.76-0.028-2.772-0.040-5.44-8.904 1.932-10.78-4.292-10.78-4.292-1.456-3.696-3.56-4.68-3.56-4.68-2.9-1.984 0.224-1.944 0.224-1.944 3.212 0.224 4.9 3.296 4.9 3.296 2.856 4.892 7.492 3.48 9.32 2.66 0.288-2.068 1.112-3.48 2.028-4.28-7.108-0.8-14.576-3.552-14.576-15.812 0-3.492 1.24-6.348 3.292-8.588-0.36-0.808-1.44-4.060 0.28-8.468 0 0 2.68-0.86 8.8 3.28 2.56-0.712 5.28-1.064 8-1.080 2.72 0.016 5.44 0.368 8 1.080 6.080-4.14 8.76-3.28 8.76-3.28 1.72 4.408 0.64 7.66 0.32 8.468 2.040 2.24 3.28 5.096 3.28 8.588 0 12.292-7.48 15-14.6 15.788 1.12 0.96 2.16 2.92 2.16 5.92 0 4.28-0.040 7.72-0.040 8.76 0 0.84 0.56 1.84 2.2 1.52 12.804-4.196 21.964-16.196 21.964-30.316 0-17.672-14.328-32-32-32z"></path>
</svg>
